HIERARCHY
ROOT Hips
{
	OFFSET 0.000000 0.000000 0.000000
	CHANNELS 6 Xposition Yposition Zposition Zrotation Yrotation Xrotation 
	JOINT LHipJoint
	{
		OFFSET 0.000000 0.000000 0.000000
		CHANNELS 3 Zrotation Yrotation Xrotation
		JOINT LeftUpLeg
		{
			OFFSET 1.363060 -1.794630 0.839290
			CHANNELS 3 Zrotation Yrotation Xrotation
			JOINT LeftLeg
			{
				OFFSET 2.448110 -6.726130 0.000000
				CHANNELS 3 Zrotation Yrotation Xrotation
				JOINT LeftFoot
				{
					OFFSET 2.562200 -7.039590 0.000000
					CHANNELS 3 Zrotation Yrotation Xrotation
					JOINT LeftToeBase
					{
						OFFSET 0.157640 -0.433110 2.322550
						CHANNELS 3 Zrotation Yrotation Xrotation
						End Site
						{
							OFFSET 0.000000 0.000000 0.000000
						}
					}
				}
			}
		}
	}
	JOINT RHipJoint
	{
		OFFSET 0.000000 0.000000 0.000000
		CHANNELS 3 Zrotation Yrotation Xrotation
		JOINT RightUpLeg
		{
			OFFSET -1.305520 -1.794630 0.839290
			CHANNELS 3 Zrotation Yrotation Xrotation
			JOINT RightLeg
			{
				OFFSET -2.542530 -6.985550 0.000000
				CHANNELS 3 Zrotation Yrotation Xrotation
				JOINT RightFoot
				{
					OFFSET -2.568260 -7.056230 0.000000
					CHANNELS 3 Zrotation Yrotation Xrotation
					JOINT RightToeBase
					{
						OFFSET -0.164730 -0.452590 2.363150
						CHANNELS 3 Zrotation Yrotation Xrotation
						End Site
						{
							OFFSET 0.000000 0.000000 0.000000
						}
					}
				}
			}
		}
	}
}
MOTION
Frames: 11
Frame Time: 0.008333
3.779797 17.198189 1.264688 -179.874117 -71.133180 -171.986577 -11.744545 1.898450 -2.115993 -4.943559 29.272784 -12.711993 -3.035570 -0.916610 1.121106 0.817066 6.686573 -0.611239 0.784900 0.000001 -34.009400 9.450718 -1.667084 3.568082 0.377532 2.729056 -10.297874 2.615200 1.372518 -4.032625 0.701878 3.790640 4.749379 0.285200 0.000000 -43.753100
3.776293 17.199204 1.266216 -179.775011 -70.865511 -172.040858 -11.750643 1.898762 -2.130994 -4.934354 29.359743 -12.744247 -3.032364 -0.913688 1.162163 0.838617 6.848107 -0.657084 0.796700 0.000000 -33.962401 9.436261 -1.670839 3.617957 0.376794 2.930590 -10.284354 2.626714 1.389699 -4.244550 0.724611 3.874265 4.930708 0.303900 0.000000 -43.668200
3.773084 17.200693 1.267584 -179.701728 -70.605503 -172.075543 -11.758936 1.904217 -2.136280 -4.935865 29.456483 -12.782842 -3.031491 -0.913049 1.190000 0.856779 6.989158 -0.682719 0.808800 0.000000 -33.918799 9.420709 -1.681527 3.678224 0.371047 3.123142 -10.275388 2.638607 1.408260 -4.466768 0.749139 3.961759 5.123571 0.323500 -0.000001 -43.585099
3.770453 17.202590 1.268515 -179.659973 -70.364506 -172.091426 -11.769643 1.914890 -2.130048 -4.946658 29.559570 -12.823535 -3.032532 -0.915189 1.202180 0.870784 7.106078 -0.683858 0.821600 -0.000000 -33.881600 9.404024 -1.700917 3.749338 0.360620 3.303286 -10.268208 2.650100 1.427471 -4.692734 0.774237 4.046410 5.319722 0.342300 -0.000000 -43.503200
3.768631 17.204777 1.268841 -179.646985 -70.154374 -172.094086 -11.782649 1.930601 -2.109690 -4.964914 29.664331 -12.868219 -3.035199 -0.920281 1.202357 0.879989 7.194126 -0.661459 0.834500 0.000000 -33.856300 9.384766 -1.726677 3.828344 0.351242 3.470027 -10.344951 2.658817 1.434305 -4.736958 0.792881 4.124770 5.410676 0.358701 -0.000000 -43.417300
3.767881 17.207280 1.268328 -179.659311 -69.986660 -172.090683 -11.797426 1.950552 -2.076222 -4.986076 29.766286 -12.913360 -3.038929 -0.927347 1.191686 0.883852 7.248728 -0.613170 0.847400 0.000000 -33.843500 9.362774 -1.756151 3.911036 0.346812 3.625457 -10.533136 2.662637 1.422806 -4.519849 0.799744 4.181920 5.348174 0.368900 -0.000000 -43.328800
3.768465 17.209765 1.267057 -179.676789 -69.868636 -172.091196 -11.812376 1.974399 -2.029091 -5.009576 29.854138 -12.975849 -3.043826 -0.934278 1.181157 0.882940 7.266882 -0.549937 0.858500 0.000000 -33.847200 9.340222 -1.789363 3.995581 0.353023 3.750960 -10.719928 2.665893 1.412896 -4.293847 0.802561 4.207606 5.267154 0.370700 -0.000000 -43.231700
3.770467 17.212336 1.264945 -179.685320 -69.811373 -172.102293 -11.825621 2.000320 -1.971849 -5.031455 29.913724 -13.055402 -3.048875 -0.939192 1.170432 0.877790 7.248986 -0.471435 0.867700 0.000000 -33.866300 9.318628 -1.820894 4.073762 0.374753 3.844536 -10.897799 2.667771 1.404854 -4.062351 0.798823 4.182050 5.167759 0.359801 0.000000 -43.129100
3.773943 17.214854 1.262162 -179.661630 -69.829521 -172.131092 -11.834471 2.025194 -1.906940 -5.051876 29.926454 -13.167523 -3.053656 -0.940630 1.164784 0.869103 7.194097 -0.384545 0.874000 -0.000000 -33.898300 9.299556 -1.844429 4.136522 0.420157 3.897486 -11.076349 2.668447 1.398863 -3.816887 0.786606 4.091748 5.043951 0.332901 0.000000 -43.020100
3.778731 17.217365 1.258891 -179.585229 -69.939650 -172.180657 -11.836559 2.045649 -1.837419 -5.070988 29.870107 -13.321955 -3.057365 -0.937828 1.164174 0.857699 7.103859 -0.293014 0.877100 0.000001 -33.940700 9.284780 -1.854241 4.174206 0.495444 3.901582 -11.261757 2.667745 1.395050 -3.553696 0.763839 3.923098 4.892855 0.287500 0.000000 -42.908000
3.784669 17.219922 1.255387 -179.442623 -70.156632 -172.251870 -11.830614 2.059524 -1.763786 -5.090437 29.722490 -13.526040 -3.059050 -0.930577 1.165264 0.844350 6.980988 -0.198593 0.877201 0.000000 -33.989200 9.275296 -1.846121 4.179322 0.604089 3.847918 -11.459645 2.665521 1.393679 -3.271091 0.728854 3.665656 4.715697 0.221900 0.000000 -42.795300
